<?xml version="1.0" encoding="UTF-8"?>
<svg id="Ebene_1" xmlns="http://www.w3.org/2000/svg" viewBox="0 0 305.06 83.28">
  <defs>
    <style>
      .cls-1 {
        fill: #0d0802;
      }
    </style>
  </defs>
  <path class="cls-1" d="M11.52,8.64h6.32V.22h-8.19C6.5.22,4.11.88,2.46,2.2.82,3.51,0,5.75,0,8.89v5.21h8.86v-2.55c0-1.06.06-1.82.5-2.26.44-.44,1.05-.66,2.17-.66M17.84,14.1h-8.98v.03h-.04v8.82H0v27.94h8.82v-27.94h9.02v-8.86Z"/>
  <path class="cls-1" d="M77.11,28.47h-15.97c.18-2.13.98-3.91,2.4-5.35,1.41-1.43,3.23-2.15,5.45-2.15,2.41,0,4.3.66,5.69,1.98,1.39,1.32,2.2,3.16,2.43,5.52M85.86,35.21v-2.71c0-5.88-1.59-10.59-4.76-14.13-3.17-3.54-7.21-5.31-12.12-5.31s-8.97,1.77-12.18,5.31c-3.22,3.54-4.82,8.25-4.82,14.13s1.62,10.59,4.86,14.13c3.24,3.54,7.43,5.31,12.57,5.31,6.39,0,11.46-2.73,15.2-8.19l-6.32-5.55c-1.2,1.76-2.49,3.16-3.85,4.2-1.37,1.04-3.09,1.56-5.17,1.56-2.45,0-4.39-.75-5.8-2.26-1.41-1.5-2.19-3.67-2.33-6.49h24.72Z"/>
  <path class="cls-1" d="M96.73,48.09c2.75,2.57,6.68,3.85,11.77,3.85s8.57-1.17,11.14-3.51c2.57-2.34,3.85-4.99,3.85-7.95,0-2.78-.78-5.06-2.33-6.84-1.55-1.78-4.48-3.25-8.78-4.41-4.91-1.39-7.97-2.37-9.2-2.95-1.23-.58-1.84-1.38-1.84-2.4,0-.93.52-1.72,1.56-2.4,1.04-.67,2.44-1.01,4.2-1.01,2.27,0,3.99.51,5.17,1.53,1.18,1.02,2.09,2.41,2.74,4.17l7.5-2.29c-2.08-7.22-7.24-10.83-15.48-10.83-4.3,0-7.7,1.11-10.17,3.33-2.48,2.22-3.71,4.86-3.71,7.91,0,2.73.99,4.92,2.98,6.56,1.99,1.64,5.11,3.07,9.37,4.27.46.14,1.13.32,2.01.56,3.24.93,5.37,1.65,6.39,2.19,1.02.53,1.53,1.33,1.53,2.39,0,1.3-.66,2.3-1.98,3.02-1.32.72-3.09,1.08-5.31,1.08-4.86,0-7.61-2.57-8.26-7.71l-8.12,2.08c.56,3.66,2.21,6.77,4.96,9.34"/>
  <path class="cls-1" d="M154.52,28.47h-15.97c.18-2.13.98-3.91,2.39-5.35,1.41-1.43,3.23-2.15,5.45-2.15,2.41,0,4.3.66,5.69,1.98,1.39,1.32,2.2,3.16,2.43,5.52M163.27,35.21v-2.71c0-5.88-1.59-10.59-4.76-14.13-3.17-3.54-7.21-5.31-12.11-5.31s-8.97,1.77-12.18,5.31c-3.22,3.54-4.82,8.25-4.82,14.13s1.62,10.59,4.86,14.13c3.24,3.54,7.43,5.31,12.57,5.31,6.39,0,11.46-2.73,15.2-8.19l-6.32-5.55c-1.2,1.76-2.49,3.16-3.85,4.2-1.37,1.04-3.09,1.56-5.17,1.56-2.45,0-4.39-.75-5.8-2.26-1.41-1.5-2.19-3.67-2.33-6.49h24.72Z"/>
  <path class="cls-1" d="M180.97,50.9v-22.49c0-2.13.62-3.83,1.87-5.1,1.25-1.27,2.99-1.91,5.21-1.91,2.36,0,4.03.64,5,1.91.97,1.27,1.46,3.18,1.46,5.73v21.87h9.03v-24.09c0-4.3-1.16-7.67-3.47-10.1-2.32-2.43-5.51-3.65-9.58-3.65-1.94,0-3.8.44-5.55,1.32-1.76.88-3.15,1.97-4.17,3.26h-.14v-3.54h-8.68v36.8h9.03Z"/>
  <rect class="cls-1" x="214.3" y="14.1" width="9.02" height="36.8"/>
  <g>
    <path class="cls-1" d="M237.17,48.12c2.06,2.55,5.22,3.82,9.48,3.82s7.31-1.53,9.58-4.58h.14v3.54h8.61V14.1h-9.03v22.08c0,2.45-.67,4.25-2.01,5.38-1.34,1.14-3.1,1.7-5.28,1.7-1.94,0-3.36-.49-4.23-1.46-.88-.97-1.32-2.61-1.32-4.93V14.1h-9.03v23.74c0,4.3,1.03,7.73,3.09,10.28"/>
    <path class="cls-1" d="M278.27,48.09c2.75,2.57,6.68,3.85,11.77,3.85s8.57-1.17,11.14-3.51c2.57-2.34,3.85-4.99,3.85-7.95,0-2.78-.78-5.06-2.33-6.84-1.55-1.78-4.48-3.25-8.78-4.41-4.91-1.39-7.97-2.37-9.2-2.95-1.23-.58-1.84-1.38-1.84-2.4,0-.93.52-1.72,1.56-2.4,1.04-.67,2.44-1.01,4.2-1.01,2.27,0,3.99.51,5.17,1.53,1.18,1.02,2.09,2.41,2.74,4.17l7.5-2.29c-2.08-7.22-7.24-10.83-15.48-10.83-4.3,0-7.7,1.11-10.17,3.33-2.48,2.22-3.71,4.86-3.71,7.91,0,2.73.99,4.92,2.99,6.56,1.99,1.64,5.11,3.07,9.37,4.27.46.14,1.13.32,2.01.56,3.24.93,5.37,1.65,6.39,2.19,1.02.53,1.53,1.33,1.53,2.39,0,1.3-.66,2.3-1.98,3.02-1.32.72-3.09,1.08-5.31,1.08-4.86,0-7.61-2.57-8.26-7.71l-8.12,2.08c.56,3.66,2.21,6.77,4.96,9.34"/>
  </g>
  <rect class="cls-1" x="214.3" width="9.02" height="9.02"/>
  <path class="cls-1" d="M36.57,50.9v-20.2c0-5.6,2.11-8.4,6.32-8.4.88,0,1.83.19,2.85.56l1.39-8.75c-1.06-.46-2.18-.69-3.33-.69-1.62,0-3.11.42-4.48,1.25-1.37.83-2.4,1.94-3.09,3.33h-.14v-3.89h-8.54v36.8h9.03Z"/>
  <g>
    <path class="cls-1" d="M112.84,77.23v-11.69h2.56v11.51c0,2.56,1.24,3.85,3.77,3.85s3.8-1.29,3.8-3.8v-11.56h2.56v11.69c0,3.87-2.31,6.05-6.35,6.05s-6.33-2.18-6.33-6.05Z"/>
    <path class="cls-1" d="M131.39,69.76h2.33v1.04h.05c.69-.87,1.98-1.41,3.27-1.41,1.39,0,2.7.64,3.4,1.64h.05c.89-1.02,2.13-1.64,3.6-1.64,2.68,0,4.69,1.84,4.69,4.49v9.03h-2.38v-8.63c0-1.61-1.04-2.63-2.58-2.63s-2.58,1.12-2.58,2.78v8.49h-2.31v-8.63c0-1.61-1.07-2.63-2.56-2.63-1.59,0-2.6,1.12-2.6,2.78v8.49h-2.38v-13.15Z"/>
    <path class="cls-1" d="M152.7,69.76h2.41l2.16,9.65h.05l3.3-9.65h2.16l3.3,9.65h.05l2.16-9.65h2.41l-3.1,13.15h-2.36l-3.52-10.22h-.05l-3.5,10.22h-2.36l-3.1-13.15Z"/>
    <path class="cls-1" d="M174.23,76.33c0-4.12,2.48-6.95,6.1-6.95s5.96,2.68,5.96,6.65v1.02h-9.6c.07,2.28,1.46,4.07,3.65,4.07,1.66,0,2.66-.65,3.75-2.41l1.89,1.27c-1.17,2.18-3.1,3.3-5.61,3.3-3.67,0-6.13-2.8-6.13-6.95ZM183.88,75.19c-.1-2.11-1.44-3.65-3.55-3.65s-3.55,1.66-3.6,3.65h7.15Z"/>
    <path class="cls-1" d="M191.3,64.8h2.43v18.11h-2.43v-18.11Z"/>
    <path class="cls-1" d="M202.58,71.94v7.49c0,.84.32,1.17,1.41,1.17h1.19v2.31h-1.41c-2.65,0-3.62-.92-3.62-3.42v-7.54h-2.06v-2.18h2.06v-3.08h2.43v3.08h2.73v2.18h-2.73Z"/>
    <path class="cls-1" d="M213.13,71.94v7.49c0,.84.32,1.17,1.41,1.17h1.19v2.31h-1.41c-2.66,0-3.62-.92-3.62-3.42v-7.54h-2.06v-2.18h2.06v-3.08h2.43v3.08h3.23v2.18h-3.23Z"/>
    <path class="cls-1" d="M219.85,76.33c0-4.12,2.48-6.95,6.1-6.95s5.95,2.68,5.95,6.65v1.02h-9.6c.07,2.28,1.46,4.07,3.65,4.07,1.66,0,2.65-.65,3.75-2.41l1.89,1.27c-1.17,2.18-3.1,3.3-5.61,3.3-3.67,0-6.13-2.8-6.13-6.95ZM229.5,75.19c-.1-2.11-1.44-3.65-3.55-3.65s-3.55,1.66-3.6,3.65h7.15Z"/>
    <path class="cls-1" d="M236.42,76.33c0-4.14,2.53-6.95,6.18-6.95,3.05,0,5.31,1.86,5.78,4.81l-2.33.47c-.35-1.94-1.61-3.03-3.45-3.03-2.26,0-3.75,1.81-3.75,4.69s1.49,4.69,3.75,4.69c1.86,0,3.1-1.09,3.45-3.03l2.33.47c-.47,2.95-2.73,4.81-5.78,4.81-3.65,0-6.18-2.8-6.18-6.95Z"/>
    <path class="cls-1" d="M253.26,64.8h2.43v6.13h.05c.74-.92,2.16-1.54,3.55-1.54,3,0,4.96,1.96,4.96,4.96v8.56h-2.43v-8.11c0-1.96-1.12-3.15-3-3.15s-3.13,1.26-3.13,3.15v8.11h-2.43v-18.11Z"/>
    <path class="cls-1" d="M269.63,69.76h2.33v1.17h.05c.79-.92,2.26-1.54,3.65-1.54,3,0,4.96,1.96,4.96,5.04v8.49h-2.43v-8.11c0-1.96-1.12-3.15-3-3.15s-3.13,1.26-3.13,3.15v8.11h-2.43v-13.15Z"/>
    <path class="cls-1" d="M285.88,64.92h2.65v2.56h-2.65v-2.56ZM286,69.76h2.43v13.15h-2.43v-13.15Z"/>
    <path class="cls-1" d="M293.92,64.8h2.43v10.52h.05l5.09-5.56h3.28l-4.84,5.14,5.14,8.01h-2.83l-3.92-6.33h-.05l-1.91,2.08v4.24h-2.43v-18.11Z"/>
  </g>
</svg>