<svg xmlns="http://www.w3.org/2000/svg" width="17" height="23" viewBox="0 0 17 23" fill="none">
  <path d="M6.88892 20.874C6.84589 20.1798 6.80287 19.4856 6.71681 18.7914C6.50168 17.3597 5.89932 16.1448 4.78065 15.2337C3.61894 14.2792 2.50026 13.2813 0.994358 12.9776C0.779229 12.9342 0.521074 12.804 0.391995 12.6305C0.219891 12.3701 -0.0382641 12.023 0.00476176 11.7627C0.0477876 11.5024 0.391995 11.1553 0.693177 11.1119C4.65157 10.3743 6.50168 7.59754 7.57733 4.03979C7.83549 3.17205 7.96456 2.21753 8.13667 1.3064C8.26575 1.00269 8.22272 0.698979 8.3518 0.438656C8.48088 0.22172 8.73903 -0.0386036 8.91113 0.00478357C9.08324 0.00478357 9.29837 0.308494 9.42744 0.52543C9.5135 0.698979 9.47047 0.915915 9.47047 1.13285C9.42744 2.04398 9.38442 2.91173 9.34139 3.82286C9.29837 4.82076 9.21232 5.81867 9.21232 6.81657C9.16929 8.46529 10.2019 9.46319 11.4927 10.114C12.3102 10.5045 13.2137 10.7214 14.2033 10.5913C14.8057 10.5045 15.408 10.678 16.0534 10.7648C16.2686 10.8082 16.4837 10.8516 16.6128 10.9817C16.7849 11.1987 17 11.5024 17 11.7193C17 12.1098 16.6128 12.1532 16.2686 12.1098C15.7092 12.0664 15.1929 12.023 14.6336 11.9363C13.601 11.8061 12.6544 12.0664 11.7078 12.4135C11.2776 12.5871 10.8473 12.9342 10.6322 13.3247C10.1589 14.0622 9.6856 14.7998 9.47047 15.6242C8.95416 17.5332 8.60995 19.4856 8.17969 21.3947C8.09364 21.7852 8.09364 22.1756 7.92154 22.5227C7.83549 22.7397 7.53431 23 7.3622 23C7.1901 23 6.88892 22.6963 6.88892 22.4794C6.84589 21.9587 6.88892 21.3947 6.88892 20.874Z" fill="black"/>
</svg>